# xmcd
#
# Track frame offsets:
#	150
#	10959
#	24282
#	37235
#	55056
#	72086
#	94485
#	112083
#	130761
#	152446
#	175092
#	194837
#
# Disc length: 2851 seconds
#
# Revision: 4
# Processed by: cddbd v1.5.1PL2 Copyright (c) Steve Scherf et al.
# Submitted via: dBpowerAMP V4.0
#
DISCID=a20b210c
DTITLE=Various Artist - Sounds Of The Season - The Country Collection
DYEAR=2005
DGENRE=Christmas
TTITLE0=Brooks and Dunn - Santa Claus Is Comin' To Town
TTITLE1=Kenny Chesney - Away In A Manger
TTITLE2=Alison Krauss - The Angels Cried [w/Alan Jackson]
TTITLE3=Third Day - Do You Hear What I Hear?
TTITLE4=Martina McBride - O Holy Night
TTITLE5=Brad Paisley - 364 Days To Go
TTITLE6=Phil Vassar - Let's Make A Little Christmas Tonight
TTITLE7=Diamond Rio - What Child Is This
TTITLE8=Sara Evans - O Come All Ye Fairthful
TTITLE9=Andy Griggs - Silent Night
TTITLE10=Jars Of Clay - Little Drummer Boy
TTITLE11=Lonestar - Christmas Lights
EXTD=
EXTT0=
EXTT1=
EXTT2=
EXTT3=
EXTT4=
EXTT5=
EXTT6=
EXTT7=
EXTT8=
EXTT9=
EXTT10=
EXTT11=
PLAYORDER=
